<?xml version="1.0" encoding="utf-8"?>
<!-- Generator: Adobe Illustrator 24.0.3, SVG Export Plug-In . SVG Version: 6.00 Build 0)  -->
<svg version="1.1" id="Layer_1" xmlns="http://www.w3.org/2000/svg" xmlns:xlink="http://www.w3.org/1999/xlink" x="0px" y="0px"
	 viewBox="0 0 580 224.59" style="enable-background:new 0 0 580 224.59;" xml:space="preserve">
<style type="text/css">
	.st0{fill:#5C9DEA;}
	.st1{fill:#FFFFFF;}
</style>
<g>
	<g>
		<g>
			<path class="st0" d="M256.12,182.18c-5.7,0-6.5,4.78-6.5,10.3c0,5.52,0.8,10.36,6.5,10.36c5.64,0,6.43-4.84,6.43-10.36
				C262.55,186.95,261.76,182.18,256.12,182.18 M265.31,205.65c-1.72,1.71-4.47,2.76-7.6,2.76c-3.31,0-5.88-0.86-8.21-3.68v3.31
				h-6.13v-43.65h6.25v15.7c2.27-2.7,4.84-3.5,8.15-3.5c3.12,0,5.82,1.04,7.54,2.76c3.01,3.06,3.49,8.03,3.49,13.12
				C268.8,197.62,268.32,202.59,265.31,205.65"/>
			<path class="st0" d="M285.48,214.24c-0.61,1.72-1.35,2.94-2.27,3.86c-1.71,1.72-3.98,2.27-6.38,2.27h-2.52v-5.64h1.6
				c2.64,0,3.56-0.8,4.47-3.31l1.71-4.84l-10.85-29.61h6.62l7.42,21.88l7.23-21.88h6.69L285.48,214.24z"/>
			<path class="st0" d="M332.98,170.34h-9.56v14.59h9.56c4.66,0,7.73-2.7,7.73-7.29C340.71,172.98,337.64,170.34,332.98,170.34
				 M333.35,190.82h-9.93v17.23h-6.62V164.4h16.55c8.52,0,13.98,5.64,13.98,13.24C347.33,185.24,341.87,190.82,333.35,190.82"/>
			<path class="st0" d="M369.08,194.31h-7.17c-3.8,0-5.7,1.6-5.7,4.48c0,2.88,1.78,4.41,5.88,4.41c2.2,0,3.98-0.25,5.64-1.78
				c0.98-0.92,1.35-2.39,1.35-4.6V194.31z M369.21,208.05v-2.82c-2.27,2.27-4.42,3.19-8.28,3.19c-3.86,0-6.43-0.92-8.33-2.82
				c-1.6-1.66-2.46-4.05-2.46-6.69c0-5.2,3.62-8.95,10.79-8.95h8.15v-2.2c0-3.99-1.9-5.83-6.8-5.83c-3.31,0-5.03,0.86-6.81,3.06
				l-4.04-3.86c2.88-3.43,5.88-4.54,11.1-4.54c8.58,0,12.81,3.68,12.81,10.67v20.78H369.21z"/>
			<path class="st0" d="M402.37,208.05V189.1c0-4.84-2.76-6.92-6.25-6.92c-3.5,0-6.44,2.15-6.44,6.92v18.95h-6.25v-31.08h6.13v3.13
				c2.15-2.33,5.15-3.5,8.28-3.5c3.19,0,5.83,1.05,7.66,2.82c2.39,2.33,3.13,5.28,3.13,8.77v19.86H402.37z"/>
			<path class="st0" d="M433.32,194.31h-7.17c-3.8,0-5.7,1.6-5.7,4.48c0,2.88,1.78,4.41,5.88,4.41c2.2,0,3.98-0.25,5.64-1.78
				c0.98-0.92,1.35-2.39,1.35-4.6V194.31z M433.44,208.05v-2.82c-2.27,2.27-4.42,3.19-8.28,3.19c-3.86,0-6.43-0.92-8.33-2.82
				c-1.6-1.66-2.46-4.05-2.46-6.69c0-5.2,3.62-8.95,10.79-8.95h8.15v-2.2c0-3.99-1.9-5.83-6.8-5.83c-3.31,0-5.03,0.86-6.81,3.06
				l-4.04-3.86c2.88-3.43,5.88-4.54,11.1-4.54c8.58,0,12.81,3.68,12.81,10.67v20.78H433.44z"/>
			<path class="st0" d="M457.71,208.41c-5.09,0-9.38-0.86-13.05-4.47l4.11-4.11c2.52,2.57,5.88,3.25,8.95,3.25
				c3.86,0,6.81-1.34,6.81-4.29c0-2.15-1.17-3.38-4.17-3.68l-4.97-0.43c-5.88-0.55-9.19-3.12-9.19-8.58c0-6.13,5.2-9.51,11.71-9.51
				c4.72,0,8.64,0.98,11.52,3.5l-3.93,3.98c-1.96-1.66-4.72-2.27-7.66-2.27c-3.8,0-5.64,1.6-5.64,3.99c0,2.14,1.22,3.25,4.29,3.55
				l4.36,0.37c6.43,0.56,9.8,3.38,9.8,8.83C470.64,205.05,465.13,208.41,457.71,208.41"/>
			<path class="st0" d="M492.78,183.95c-1.16-1.16-2.76-1.78-4.6-1.78c-1.84,0-3.38,0.61-4.54,1.78c-1.9,1.9-2.15,5.15-2.15,8.52
				c0,3.37,0.25,6.62,2.15,8.52c1.16,1.16,2.7,1.84,4.54,1.84c1.84,0,3.43-0.67,4.6-1.84c1.9-1.9,2.15-5.15,2.15-8.52
				C494.92,189.1,494.68,185.85,492.78,183.95 M497.5,204.74c-2.02,2.08-5.09,3.68-9.32,3.68c-4.23,0-7.24-1.6-9.26-3.68
				c-2.94-3.06-3.68-6.99-3.68-12.26c0-5.21,0.74-9.14,3.68-12.2c2.02-2.08,5.03-3.68,9.26-3.68c4.23,0,7.29,1.6,9.32,3.68
				c2.94,3.06,3.68,6.99,3.68,12.2C501.18,197.75,500.44,201.67,497.5,204.74"/>
			<path class="st0" d="M527.04,208.05V189.1c0-4.84-2.76-6.92-6.25-6.92s-6.44,2.15-6.44,6.92v18.95h-6.25v-31.08h6.13v3.13
				c2.15-2.33,5.15-3.5,8.28-3.5c3.19,0,5.83,1.05,7.66,2.82c2.39,2.33,3.13,5.28,3.13,8.77v19.86H527.04z"/>
		</g>
		<path class="st0" d="M541.38,208.05h6.25v-31.08h-6.25V208.05z M541.2,170.83h6.61v-6.61h-6.61V170.83z"/>
		<g>
			<path class="st0" d="M568.29,208.41c-6.99,0-13.86-4.29-13.86-15.94s6.87-15.88,13.86-15.88c4.29,0,7.29,1.23,10.24,4.36
				l-4.29,4.16c-1.97-2.15-3.5-2.94-5.95-2.94c-2.39,0-4.42,0.98-5.76,2.76c-1.35,1.71-1.84,3.93-1.84,7.54s0.49,5.88,1.84,7.6
				c1.34,1.79,3.37,2.76,5.76,2.76c2.45,0,3.98-0.8,5.95-2.94l4.29,4.11C575.58,207.13,572.58,208.41,568.29,208.41"/>
		</g>
	</g>
	<g>
		<g>
			<path class="st1" d="M52.08,131.11c-12.61,0-23.27-4.62-30.73-12.08C9.62,107.3,8.73,97.53,8.73,66.8s0.89-40.5,12.61-52.23
				C28.81,7.12,39.46,2.5,52.08,2.5c22.73,0,38.72,14.21,42.99,36.94H85.3c-3.73-17.58-16.17-28.42-33.22-28.42
				c-9.24,0-17.41,3.19-23.98,9.77c-9.06,9.06-9.77,19.36-9.77,46.01c0,26.64,0.71,36.95,9.77,46.01
				c6.57,6.57,14.74,9.77,23.98,9.77c17.05,0,29.84-10.83,33.57-28.42h9.41C90.8,116.9,74.46,131.11,52.08,131.11"/>
		</g>
		<rect x="122.78" y="3.56" class="st1" width="9.6" height="126.48"/>
		<g>
			<path class="st1" d="M211.01,12.09h-37.31v51.16h37.31c16.34,0,27.88-8,27.88-25.58C238.9,20.08,227.35,12.09,211.01,12.09
				 M238.72,130.04l-30.2-58.27h-34.82v58.27h-9.6V3.57h48.15c20.6,0,36.24,11.89,36.24,33.92c0,19.01-11.37,31.09-29.14,34.11
				l30.56,58.44H238.72z"/>
			<path class="st1" d="M322.39,12.09h-37.31v51.16h37.31c16.34,0,27.88-8,27.88-25.58C350.28,20.08,338.73,12.09,322.39,12.09
				 M350.1,130.04l-30.2-58.27h-34.82v58.27h-9.6V3.57h48.15c20.6,0,36.24,11.89,36.24,33.92c0,19.01-11.37,31.09-29.14,34.11
				l30.56,58.44H350.1z"/>
			<path class="st1" d="M429.44,131.11c-25.4,0-43.34-17.41-43.34-42.1V3.56h9.6v84.2c0,20.96,13.32,34.82,33.75,34.82
				c20.43,0,33.75-13.86,33.75-34.82V3.56h9.6v85.44C472.78,113.7,454.84,131.11,429.44,131.11"/>
			<path class="st1" d="M536.37,131.11c-18.65,0-30.56-5.15-42.1-16.7l6.75-6.75c11.37,11.37,20.78,14.92,35.88,14.92
				c20.08,0,32.51-9.59,32.51-26.11c0-7.64-2.13-13.68-6.93-17.77c-4.45-3.91-8.18-5.15-18.3-6.75l-14.74-2.31
				c-9.6-1.42-17.05-4.26-22.56-9.06c-6.58-5.51-9.95-13.32-9.95-23.45c0-21.14,14.92-34.64,39.26-34.64
				c15.63,0,25.58,4.26,36.41,13.68l-6.21,6.21c-7.46-7.1-15.81-11.72-30.74-11.72c-18.47,0-29.31,9.94-29.31,26.11
				c0,7.28,1.96,12.97,6.4,16.7c4.44,3.73,11.01,6.22,18.11,7.29l14.75,2.31c11.72,1.78,16.7,3.73,22.56,8.71
				C574.92,77.64,579,85.81,579,96.12C579,117.43,562.83,131.11,536.37,131.11"/>
		</g>
	</g>
</g>
</svg>
